<?xml version="1.0" encoding="UTF-8" standalone="no"?>
<!-- Created with Inkscape (http://www.inkscape.org/) -->

<svg
   xmlns:osb="http://www.openswatchbook.org/uri/2009/osb"
   xmlns:dc="http://purl.org/dc/elements/1.1/"
   xmlns:cc="http://creativecommons.org/ns#"
   xmlns:rdf="http://www.w3.org/1999/02/22-rdf-syntax-ns#"
   xmlns:svg="http://www.w3.org/2000/svg"
   xmlns="http://www.w3.org/2000/svg"
   xmlns:xlink="http://www.w3.org/1999/xlink"
   xmlns:sodipodi="http://sodipodi.sourceforge.net/DTD/sodipodi-0.dtd"
   xmlns:inkscape="http://www.inkscape.org/namespaces/inkscape"
   width="210mm"
   height="297mm"
   viewBox="0 0 744.09448819 1052.3622047"
   id="svg2"
   version="1.1"
   inkscape:version="0.91 r13725"
   sodipodi:docname="logo.svg">
  <defs
     id="defs4">
    <linearGradient
       inkscape:collect="always"
       id="linearGradient4546">
      <stop
         id="stop4550"
         offset="0"
         style="stop-color:#f51616;stop-opacity:0.51190478" />
      <stop
         id="stop4548"
         offset="1"
         style="stop-color:#f30000;stop-opacity:1" />
    </linearGradient>
    <linearGradient
       inkscape:collect="always"
       id="linearGradient4290"
       osb:paint="gradient">
      <stop
         style="stop-color:#000000;stop-opacity:1;"
         offset="0"
         id="stop4292" />
      <stop
         style="stop-color:#ff0006;stop-opacity:0"
         offset="1"
         id="stop4294" />
    </linearGradient>
    <linearGradient
       gradientTransform="translate(282,146)"
       inkscape:collect="always"
       xlink:href="#linearGradient4546"
       id="linearGradient4552-2"
       x1="230"
       y1="82.362206"
       x2="280"
       y2="32.362206"
       gradientUnits="userSpaceOnUse" />
    <filter
       inkscape:collect="always"
       style="color-interpolation-filters:sRGB"
       id="filter4668-0"
       x="-0.019200001"
       width="1.0384001"
       y="-0.019200001"
       height="1.0384001">
      <feGaussianBlur
         inkscape:collect="always"
         stdDeviation="0.79999998"
         id="feGaussianBlur4670-9" />
    </filter>
    <clipPath
       clipPathUnits="userSpaceOnUse"
       id="clipPath4917">
      <rect
         style="opacity:1;fill:#ff0000;fill-opacity:0.77999998;stroke:none;stroke-opacity:1"
         id="rect4919"
         width="15"
         height="30.000008"
         x="340"
         y="437.36221"
         ry="0" />
    </clipPath>
    <clipPath
       clipPathUnits="userSpaceOnUse"
       id="clipPath4921">
      <rect
         style="opacity:1;fill:#ff0000;fill-opacity:0.77999998;stroke:none;stroke-opacity:1"
         id="rect4923"
         width="15"
         height="30.000008"
         x="340"
         y="437.36221"
         ry="0" />
    </clipPath>
    <clipPath
       clipPathUnits="userSpaceOnUse"
       id="clipPath4925">
      <rect
         style="opacity:1;fill:#ff0000;fill-opacity:0.77999998;stroke:none;stroke-opacity:1"
         id="rect4927"
         width="15"
         height="30.000008"
         x="340"
         y="437.36221"
         ry="0" />
    </clipPath>
    <clipPath
       clipPathUnits="userSpaceOnUse"
       id="clipPath4929">
      <rect
         style="opacity:1;fill:#ff0000;fill-opacity:0.77999998;stroke:none;stroke-opacity:1"
         id="rect4931"
         width="20"
         height="50"
         x="265"
         y="587.36218"
         clip-path="none" />
    </clipPath>
  </defs>
  <sodipodi:namedview
     id="base"
     pagecolor="#ffffff"
     bordercolor="#666666"
     borderopacity="1.0"
     inkscape:pageopacity="0.0"
     inkscape:pageshadow="2"
     inkscape:zoom="1"
     inkscape:cx="321.08664"
     inkscape:cy="1029.4229"
     inkscape:document-units="px"
     inkscape:current-layer="layer1"
     showgrid="false"
     inkscape:snap-text-baseline="true"
     inkscape:window-width="1366"
     inkscape:window-height="705"
     inkscape:window-x="-8"
     inkscape:window-y="-8"
     inkscape:window-maximized="1"
     inkscape:snap-midpoints="true"
     inkscape:snap-smooth-nodes="true"
     inkscape:object-nodes="true"
     inkscape:snap-intersection-paths="true">
    <inkscape:grid
       type="xygrid"
       id="grid3482" />
  </sodipodi:namedview>
  <metadata
     id="metadata7">
    <rdf:RDF>
      <cc:Work
         rdf:about="">
        <dc:format>image/svg+xml</dc:format>
        <dc:type
           rdf:resource="http://purl.org/dc/dcmitype/StillImage" />
        <dc:title></dc:title>
      </cc:Work>
    </rdf:RDF>
  </metadata>
  <g
     inkscape:label="Layer 1"
     inkscape:groupmode="layer"
     id="layer1">
    <flowRoot
       xml:space="preserve"
       id="flowRoot3336"
       style="font-style:normal;font-weight:normal;font-size:40px;line-height:125%;font-family:sans-serif;letter-spacing:0px;word-spacing:0px;fill:#000000;fill-opacity:1;stroke:none;stroke-width:1px;stroke-linecap:butt;stroke-linejoin:miter;stroke-opacity:1"
       transform="translate(34,-112)"><flowRegion
         id="flowRegion3338"><rect
           id="rect3340"
           width="228.57143"
           height="242.85715"
           x="154.28572"
           y="309.50507" /></flowRegion><flowPara
         id="flowPara3342" /></flowRoot>    <flowRoot
       xml:space="preserve"
       id="flowRoot3344"
       style="font-style:normal;font-weight:normal;font-size:40px;line-height:125%;font-family:sans-serif;letter-spacing:0px;word-spacing:0px;fill:#000000;fill-opacity:1;stroke:none;stroke-width:1px;stroke-linecap:butt;stroke-linejoin:miter;stroke-opacity:1"
       transform="translate(34,-112)"><flowRegion
         id="flowRegion3346"><rect
           id="rect3348"
           width="677.14288"
           height="351.42856"
           x="34.285713"
           y="35.219349" /></flowRegion><flowPara
         id="flowPara3350"></flowPara></flowRoot>    <flowRoot
       xml:space="preserve"
       id="flowRoot3352"
       style="font-style:normal;font-weight:normal;font-size:40px;line-height:125%;font-family:sans-serif;letter-spacing:0px;word-spacing:0px;fill:#000000;fill-opacity:1;stroke:none;stroke-width:1px;stroke-linecap:butt;stroke-linejoin:miter;stroke-opacity:1"
       transform="translate(34,-112)"><flowRegion
         id="flowRegion3354"><rect
           id="rect3356"
           width="271.42856"
           height="214.28572"
           x="128.57143"
           y="123.79078" /></flowRegion><flowPara
         id="flowPara3358"></flowPara></flowRoot>    <flowRoot
       xml:space="preserve"
       id="flowRoot3390"
       style="font-style:normal;font-weight:normal;font-size:40px;line-height:125%;font-family:sans-serif;letter-spacing:0px;word-spacing:0px;fill:#000000;fill-opacity:1;stroke:none;stroke-width:1px;stroke-linecap:butt;stroke-linejoin:miter;stroke-opacity:1"
       transform="translate(34,-112)"><flowRegion
         id="flowRegion3392"><rect
           id="rect3394"
           width="195.71428"
           height="50"
           x="338.57144"
           y="325.21936" /></flowRegion><flowPara
         id="flowPara3396"></flowPara></flowRoot>    <text
       xml:space="preserve"
       style="font-style:normal;font-weight:normal;font-size:40px;line-height:125%;font-family:sans-serif;letter-spacing:0px;word-spacing:0px;fill:#000000;fill-opacity:1;stroke:none;stroke-width:1px;stroke-linecap:butt;stroke-linejoin:miter;stroke-opacity:1"
       x="305.42856"
       y="363.21936"
       id="text3422"
       sodipodi:linespacing="125%"><tspan
         sodipodi:role="line"
         id="tspan3424"
         x="305.42856"
         y="363.21936" /></text>
    <flowRoot
       xml:space="preserve"
       id="flowRoot3447"
       style="font-style:normal;font-weight:normal;font-size:40px;line-height:125%;font-family:sans-serif;letter-spacing:0px;word-spacing:0px;fill:#000000;fill-opacity:1;stroke:none;stroke-width:1px;stroke-linecap:butt;stroke-linejoin:miter;stroke-opacity:1"
       transform="translate(34,-112)"><flowRegion
         id="flowRegion3449"><rect
           id="rect3451"
           width="210"
           height="70"
           x="198.57143"
           y="76.647919" /></flowRegion><flowPara
         id="flowPara3453"></flowPara></flowRoot>    <g
       style="font-style:normal;font-weight:normal;font-size:40px;line-height:125%;font-family:sans-serif;letter-spacing:0px;word-spacing:0px;fill:#000000;fill-opacity:1;stroke:none;stroke-width:1px;stroke-linecap:butt;stroke-linejoin:miter;stroke-opacity:1"
       id="text4730"
       transform="translate(-16,-328)">
      <path
         d="m 22.373047,448.28018 10.986328,-6.59179 q 11.601562,21.35742 26.806641,21.35742 6.503906,0 12.216796,-2.98828 5.712891,-3.07618 8.701172,-8.17383 2.988282,-5.09766 2.988282,-10.81055 0,-6.50391 -4.394532,-12.74414 -6.064453,-8.61328 -22.148437,-20.74219 -16.171875,-12.21679 -20.126953,-17.66601 -6.855469,-9.14063 -6.855469,-19.77539 0,-8.4375 4.042969,-15.38086 4.042968,-6.94336 11.33789,-10.89844 7.382813,-4.04297 15.996094,-4.04297 9.140625,0 17.050781,4.57031 7.998047,4.48243 16.875,16.61133 l -10.546875,7.99805 q -7.294922,-9.66797 -12.480468,-12.74414 -5.097657,-3.07617 -11.16211,-3.07617 -7.822265,0 -12.832031,4.74609 -4.921875,4.74609 -4.921875,11.68945 0,4.21875 1.757812,8.17383 1.757813,3.95508 6.416016,8.61328 2.548828,2.46094 16.699219,12.91992 16.787109,12.39258 23.027344,22.06055 6.240234,9.66797 6.240234,19.42383 0,14.0625 -10.722656,24.43359 -10.634766,10.3711 -25.927735,10.3711 -11.777343,0 -21.357422,-6.24024 -9.580078,-6.32812 -17.666015,-21.09375 z"
         style="font-style:normal;font-variant:normal;font-weight:normal;font-stretch:normal;font-size:180px;font-family:'Century Gothic';-inkscape-font-specification:'Century Gothic'"
         id="path4765"
         inkscape:connector-curvature="0" />
      <path
         d="m 110.43945,376.73721 12.65625,0 29.26758,69.4336 30.67383,-69.4336 2.19726,0 30.58594,69.4336 29.79492,-69.4336 12.83204,0 -41.48438,95.625 -2.37305,0 -30.41015,-68.46679 -30.67383,68.46679 -2.28516,0 -40.78125,-95.625 z"
         style="font-style:normal;font-variant:normal;font-weight:normal;font-stretch:normal;font-size:180px;font-family:'Century Gothic';-inkscape-font-specification:'Century Gothic'"
         id="path4767"
         inkscape:connector-curvature="0" />
      <g
         id="g4943">
        <path
           id="path4769"
           d="m 318.21289,374.27539 c -13.59375,0 -25.22461,4.8926 -34.89258,14.67773 -9.66797,9.78516 -14.50195,21.56251 -14.50195,35.33204 0,14.0625 4.77539,26.01562 14.32617,35.85937 9.60937,9.78515 21.18164,14.67774 34.7168,14.67774 9.19437,-0.0731 18.35118,-2.95017 26.39062,-8.20313 C 341.73502,465.41168 340,462.84929 340,459.86133 l 0,-2.44531 c -0.57241,0.36175 -1.14782,0.7206 -1.74805,1.05859 -6.03515,3.39844 -12.42187,5.09766 -19.16015,5.09766 -6.67969,0 -12.94922,-1.69922 -18.8086,-5.09766 -5.80078,-3.45703 -10.42969,-8.26171 -13.88672,-14.41406 -3.45703,-6.15234 -5.18554,-12.59765 -5.18554,-19.33594 0,-6.79687 1.69922,-13.24219 5.09765,-19.33594 3.45703,-6.09375 8.08594,-10.81055 13.88672,-14.15039 5.80078,-3.39844 12.12891,-5.09766 18.98438,-5.09766 10.66406,0 19.6289,3.7207 26.89453,11.16211 7.32422,7.44141 10.98633,16.69922 10.98633,27.77344 0,3.13344 -0.3183,6.12531 -0.9336,8.98438 0.0855,0.25277 0.14258,0.5184 0.14258,0.80078 l 0,21.06445 0,5.71875 0,10.7168 12.12891,0 0,-95.625 -12.12891,0 0,17.57812 c -4.80469,-6.67969 -10.40039,-11.68944 -16.78711,-15.02929 -6.32813,-3.33984 -13.41797,-5.00977 -21.26953,-5.00977 z"
           style="font-style:normal;font-variant:normal;font-weight:normal;font-stretch:normal;font-size:180px;font-family:'Century Gothic';-inkscape-font-specification:'Century Gothic'"
           inkscape:connector-curvature="0" />
      </g>
      <path
         d="m 396.34766,376.73721 12.21679,0 0,17.57813 q 7.29492,-10.01953 16.78711,-15.0293 9.49219,-5.00976 21.18164,-5.00976 20.39063,0 34.89258,14.67773 14.50195,14.67773 14.50195,35.33203 0,21.09375 -14.41406,35.85938 -14.32617,14.67773 -34.6289,14.67773 -11.42579,0 -21.00586,-4.74609 -9.58008,-4.7461 -17.31446,-14.15039 l 0,51.41601 -12.21679,0 0,-130.60547 z m 49.21875,9.4043 q -15.9961,0 -26.98243,11.16211 -10.89843,11.16211 -10.89843,27.77344 0,10.89843 4.83398,19.59961 4.92188,8.70117 13.97461,13.79882 9.14063,5.09766 19.24805,5.09766 9.93164,0 18.63281,-5.09766 8.78906,-5.18554 13.97461,-14.41406 5.18555,-9.22851 5.18555,-19.33594 0,-10.19531 -5.18555,-19.33593 -5.09766,-9.14063 -13.79883,-14.15039 -8.70117,-5.09766 -18.98437,-5.09766 z"
         style="font-style:normal;font-variant:normal;font-weight:normal;font-stretch:normal;font-size:180px;font-family:'Century Gothic';-inkscape-font-specification:'Century Gothic'"
         id="path4771"
         inkscape:connector-curvature="0" />
      <path
         d="m 519.04297,376.73721 12.2168,0 0,17.57813 q 7.29492,-10.01953 16.7871,-15.0293 9.49219,-5.00976 21.18165,-5.00976 20.39062,0 34.89257,14.67773 14.50196,14.67773 14.50196,35.33203 0,21.09375 -14.41407,35.85938 -14.32617,14.67773 -34.6289,14.67773 -11.42578,0 -21.00586,-4.74609 -9.58008,-4.7461 -17.31445,-14.15039 l 0,51.41601 -12.2168,0 0,-130.60547 z m 49.21875,9.4043 q -15.9961,0 -26.98242,11.16211 -10.89844,11.16211 -10.89844,27.77344 0,10.89843 4.83398,19.59961 4.92188,8.70117 13.97461,13.79882 9.14063,5.09766 19.24805,5.09766 9.93164,0 18.63281,-5.09766 8.78906,-5.18554 13.97461,-14.41406 5.18555,-9.22851 5.18555,-19.33594 0,-10.19531 -5.18555,-19.33593 -5.09765,-9.14063 -13.79883,-14.15039 -8.70117,-5.09766 -18.98437,-5.09766 z"
         style="font-style:normal;font-variant:normal;font-weight:normal;font-stretch:normal;font-size:180px;font-family:'Century Gothic';-inkscape-font-specification:'Century Gothic'"
         id="path4773"
         inkscape:connector-curvature="0" />
      <path
         style="font-style:normal;font-variant:normal;font-weight:normal;font-stretch:normal;font-size:180px;font-family:'Century Gothic';-inkscape-font-specification:'Century Gothic'"
         d="m 674.3457,374.27539 c -4.51172,0 -8.84766,1.37695 -13.00781,4.13086 -4.16015,2.69531 -8.11523,6.79687 -11.86523,12.30469 l 0,-13.97461 -12.56836,0 0,95.625 12.56836,0 0,-32.34375 c 0,-16.58203 0.76172,-27.59766 2.28515,-33.04688 1.99219,-7.08984 4.89258,-12.30469 8.70117,-15.64453 3.8086,-3.39844 7.76367,-5.09765 11.86524,-5.09765 1.75781,0 3.92578,0.55664 6.5039,1.66992 L 679,387.62109 l 0,-12.69336 c -1.59657,-0.42499 -3.14962,-0.65234 -4.6543,-0.65234 z"
         id="path4775"
         inkscape:connector-curvature="0" />
    </g>
    <path
       style="opacity:1;fill:url(#linearGradient4552-2);fill-opacity:1;fill-rule:evenodd;stroke:#800000;stroke-width:1px;stroke-linecap:butt;stroke-linejoin:miter;stroke-opacity:1;filter:url(#filter4668-0)"
       d="m 462,178.36221 100,0 0,99.99998 -20,-19.99999 0,-59.99999 -60,0 z"
       id="path4536-9"
       inkscape:connector-curvature="0"
       transform="matrix(0.35437979,0,0,0.37500005,136.92615,54.97637)" />
  </g>
</svg>
